<svg width="45" height="42" viewBox="0 0 45 42" fill="none" xmlns="http://www.w3.org/2000/svg">
<path d="M2.00705 23.8339C1.90988 24.9999 2.83006 26 4.00014 26H7.82654C8.93114 26 9.82654 25.1046 9.82654 24V4C9.82654 2.89543 8.93114 2 7.82654 2H5.66681C4.62663 2 3.7601 2.79733 3.67371 3.83391L2.00705 23.8339Z" fill="#2F76FF" stroke="black" stroke-width="4" stroke-linecap="round" stroke-linejoin="round"/>
<path d="M15.8267 23.6255C15.8267 24.4612 16.3461 25.2092 17.102 25.5655C18.7505 26.3426 21.5596 27.9062 22.8267 30.0195C24.4598 32.7431 24.7678 37.664 24.8179 38.7912C24.8249 38.949 24.8204 39.107 24.8421 39.2634C25.1128 41.2155 28.881 38.9351 30.3267 36.5239C31.1113 35.2153 31.2119 33.496 31.1294 32.1537C31.0411 30.7175 30.62 29.3301 30.2069 27.9517L29.3267 25.0155H40.1836C41.5099 25.0155 42.4688 23.7482 42.1083 22.4719L36.738 3.45642C36.4947 2.5949 35.7085 2 34.8133 2H17.8267C16.7221 2 15.8267 2.89543 15.8267 4V23.6255Z" fill="#2F76FF" stroke="black" stroke-width="4" stroke-linecap="round" stroke-linejoin="round"/>
</svg>
