<svg width="45" height="42" viewBox="0 0 45 42" fill="none" xmlns="http://www.w3.org/2000/svg">
<path d="M2.00767 19.1733C1.90606 18.0047 2.82721 17 4.00015 17H7.81869C8.92329 17 9.81869 17.8954 9.81869 19V38C9.81869 39.1046 8.92329 40 7.81869 40H5.65232C4.61491 40 3.74971 39.2068 3.65984 38.1733L2.00767 19.1733Z" fill="#FF2F2F" stroke="black" stroke-width="4" stroke-linecap="round" stroke-linejoin="round"/>
<path d="M15.8188 18.3745C15.8188 17.5388 16.3382 16.7908 17.0941 16.4345C18.7426 15.6574 21.5517 14.0938 22.8188 11.9805C24.4519 9.2569 24.7599 4.33595 24.81 3.20878C24.817 3.05099 24.8125 2.89301 24.8342 2.73656C25.1049 0.784461 28.8731 3.06492 30.3188 5.47612C31.1034 6.78471 31.204 8.504 31.1215 9.8463C31.0332 11.2825 30.6121 12.6699 30.199 14.0483L29.3188 16.9845H40.1757C41.502 16.9845 42.4609 18.2518 42.1004 19.5281L36.7301 38.5436C36.4868 39.4051 35.7006 40 34.8054 40H17.8188C16.7142 40 15.8188 39.1046 15.8188 38V18.3745Z" fill="#FF2F2F" stroke="black" stroke-width="4" stroke-linecap="round" stroke-linejoin="round"/>
</svg>
