<svg width="42" height="45" viewBox="0 0 42 45" fill="none" xmlns="http://www.w3.org/2000/svg">
<path d="M19.1733 42.1691C18.0047 42.2707 17 41.3495 17 40.1766V36.3581C17 35.2535 17.8954 34.3581 19 34.3581H38C39.1046 34.3581 40 35.2535 40 36.3581V38.5244C40 39.5618 39.2068 40.427 38.1733 40.5169L19.1733 42.1691Z" fill="#85888B" stroke="black" stroke-width="4" stroke-linecap="round" stroke-linejoin="round"/>
<path d="M18.3745 28.3582C17.5388 28.3582 16.7908 27.8388 16.4345 27.0829C15.6574 25.4344 14.0938 22.6253 11.9805 21.3582C9.2569 19.7251 4.33595 19.4171 3.20878 19.367C3.05099 19.36 2.89301 19.3645 2.73656 19.3428C0.784461 19.0721 3.06492 15.3039 5.47612 13.8582C6.78471 13.0736 8.504 12.973 9.8463 13.0555C11.2825 13.1438 12.6699 13.5649 14.0483 13.978L16.9845 14.8582V4.00126C16.9845 2.67496 18.2518 1.71605 19.5281 2.07655L38.5436 7.44685C39.4051 7.69015 40 8.47635 40 9.37156V26.3582C40 27.4628 39.1046 28.3582 38 28.3582L18.3745 28.3582Z" fill="#85888B" stroke="black" stroke-width="4" stroke-linecap="round" stroke-linejoin="round"/>
</svg>
